REM GENRE "Alternative Rock"
REM DATE 2007
REM DISCID 870A310C
REM COMMENT "ExactAudioCopy v0.95b4"
PERFORMER "Linkin Park"
TITLE "Minutes to Midnight"
FILE "01 Wake.wav" WAVE
  TRACK 01 AUDIO
    TITLE "Wake"
    PERFORMER "Linkin Park"
    INDEX 01 00:00:00
FILE "02 Given Up.wav" WAVE
  TRACK 02 AUDIO
    TITLE "Given Up"
    PERFORMER "Linkin Park"
    INDEX 01 00:00:00
FILE "03 Leave Out All The Rest.wav" WAVE
  TRACK 03 AUDIO
    TITLE "Leave Out All The Rest"
    PERFORMER "Linkin Park"
    INDEX 01 00:00:00
FILE "04 Bleed It Out.wav" WAVE
  TRACK 04 AUDIO
    TITLE "Bleed It Out"
    PERFORMER "Linkin Park"
    INDEX 01 00:00:00
FILE "05 Shadow Of The Day.wav" WAVE
  TRACK 05 AUDIO
    TITLE "Shadow Of The Day"
    PERFORMER "Linkin Park"
    INDEX 01 00:00:00
FILE "06 What I've Done.wav" WAVE
  TRACK 06 AUDIO
    TITLE "What I've Done"
    PERFORMER "Linkin Park"
    INDEX 01 00:00:00
FILE "07 Hands Held High.wav" WAVE
  TRACK 07 AUDIO
    TITLE "Hands Held High"
    PERFORMER "Linkin Park"
    INDEX 01 00:00:00
FILE "08 No More Sorrow.wav" WAVE
  TRACK 08 AUDIO
    TITLE "No More Sorrow"
    PERFORMER "Linkin Park"
    INDEX 01 00:00:00
FILE "09 Valentine's Day.wav" WAVE
  TRACK 09 AUDIO
    TITLE "Valentine's Day"
    PERFORMER "Linkin Park"
    INDEX 01 00:00:00
FILE "10 In Between.wav" WAVE
  TRACK 10 AUDIO
    TITLE "In Between"
    PERFORMER "Linkin Park"
    INDEX 01 00:00:00
FILE "11 In Pieces.wav" WAVE
  TRACK 11 AUDIO
    TITLE "In Pieces"
    PERFORMER "Linkin Park"
    INDEX 01 00:00:00
FILE "12 The Little Things Give You Away.wav" WAVE
  TRACK 12 AUDIO
    TITLE "The Little Things Give You Away"
    PERFORMER "Linkin Park"
    INDEX 01 00:00:00
